<?xml version="1.0" standalone="no"?>
<!DOCTYPE svg PUBLIC "-//W3C//DTD SVG 20010904//EN"
 "http://www.w3.org/TR/2001/REC-SVG-20010904/DTD/svg10.dtd">
<svg version="1.0" xmlns="http://www.w3.org/2000/svg"
 width="280.000000pt" height="280.000000pt" viewBox="0 0 280.000000 280.000000"
 preserveAspectRatio="xMidYMid meet">
<metadata></metadata>
<g transform="translate(0.000000,280.000000) scale(0.100000,-0.100000)"
fill="#000000" stroke="none">
<path d="M1138 2685 c-252 -52 -459 -161 -646 -339 -186 -178 -306 -388 -369
-646 -25 -104 -27 -132 -27 -295 0 -160 3 -192 27 -291 63 -262 196 -489 394
-674 43 -40 79 -67 81 -62 2 6 -16 28 -39 49 -311 278 -463 631 -445 1033 8
183 21 251 76 398 118 315 334 553 642 708 107 54 334 121 413 121 11 0 79 1
150 2 174 2 226 -4 367 -45 410 -119 724 -420 861 -824 37 -109 39 -118 57
-265 14 -110 8 -277 -15 -419 -11 -62 -68 -224 -110 -306 -94 -186 -216 -330
-403 -473 l-62 -48 1 103 c1 116 -4 148 -35 198 -11 19 -26 54 -32 77 -9 37
-9 42 8 46 16 5 19 14 17 57 -2 28 -6 53 -10 55 -12 8 -20 -28 -9 -39 13 -13
13 -56 -1 -56 -6 0 -24 -11 -41 -25 -24 -20 -40 -25 -88 -25 -31 0 -75 -6 -96
-14 -57 -20 -128 -30 -120 -18 4 7 -5 6 -24 -1 -43 -16 -37 -28 12 -21 30 5
39 4 34 -4 -9 -16 7 -15 22 0 9 9 12 9 12 0 0 -7 -6 -13 -12 -14 -7 0 -18 -2
-23 -2 -6 -1 -25 -11 -42 -24 -17 -12 -35 -22 -40 -22 -4 0 -21 -12 -36 -26
-22 -21 -31 -23 -42 -14 -16 14 -10 34 7 24 6 -4 9 -1 6 7 -3 8 -19 18 -36 23
-39 11 -62 -5 -62 -44 l0 -27 -40 19 c-40 20 -65 17 -56 -8 3 -8 0 -14 -6 -14
-7 0 -6 -5 2 -15 15 -18 7 -19 -20 -3 -14 9 -25 10 -36 3 -13 -8 -29 -5 -63
11 -25 12 -67 25 -93 29 -27 4 -48 11 -48 16 0 12 77 11 120 -1 19 -6 50 -13
69 -16 19 -2 41 -10 49 -17 13 -10 14 -9 10 3 -2 8 -22 19 -44 24 -21 5 -41
11 -44 13 -10 8 27 23 58 23 18 0 43 5 54 11 19 10 25 7 49 -22 33 -39 39 -31
9 11 -16 22 -17 30 -7 39 10 8 19 6 35 -5 13 -9 28 -13 35 -11 7 2 0 10 -15
17 -28 13 -38 30 -17 30 29 0 107 -25 128 -42 13 -10 31 -18 40 -18 15 1 15 2
0 13 -16 12 -22 48 -9 57 9 7 20 91 11 86 -4 -3 -6 7 -5 21 0 14 9 30 19 36
19 10 19 12 -3 -42 -3 -9 -1 -12 6 -7 7 4 12 3 12 -3 0 -5 -4 -13 -10 -16 -5
-3 -10 -12 -10 -18 0 -7 9 1 20 18 14 21 16 31 8 36 -9 6 -8 11 1 23 7 8 10
19 7 24 -3 6 4 12 17 16 40 10 53 5 22 -9 -24 -11 -26 -14 -10 -15 20 -1 20
-1 0 -16 -11 -8 -19 -20 -17 -25 1 -5 -5 -23 -13 -39 -9 -17 -11 -30 -5 -30 5
0 23 26 39 59 35 69 41 71 204 64 71 -3 107 -1 107 6 0 11 -11 14 -40 12 -8 0
-10 2 -5 4 6 3 8 81 5 220 -3 118 -3 237 1 263 3 26 7 39 8 30 0 -10 6 -18 12
-18 6 0 10 28 9 73 -1 72 10 127 30 152 6 7 15 35 20 62 4 26 11 59 14 73 6
21 5 22 -3 5 -9 -18 -10 -17 -10 8 -1 33 -18 68 -38 80 -11 7 -11 12 -2 23 12
15 8 145 -6 179 -8 18 -7 19 10 5 18 -15 19 -14 2 10 -9 13 -17 34 -17 45 0
33 -27 114 -69 206 -12 25 -21 50 -21 56 0 6 -20 33 -43 59 -24 27 -50 60 -57
74 -7 14 -15 20 -17 13 -3 -8 -19 -2 -46 17 -23 15 -45 26 -50 23 -4 -2 -16 6
-26 19 -19 23 -22 23 -233 25 -146 1 -233 -3 -278 -12 -57 -12 -67 -12 -82 2
-16 14 -22 12 -75 -17 -32 -18 -76 -45 -98 -59 -22 -14 -43 -25 -47 -26 -8 0
-23 -15 -24 -23 0 -4 -29 -35 -63 -70 -35 -35 -61 -66 -57 -69 3 -3 12 -1 20
6 11 9 15 9 18 0 2 -7 18 0 40 19 35 32 131 82 156 82 7 0 10 4 7 10 -4 6 1 7
11 3 12 -4 15 -3 10 5 -5 8 -2 10 8 6 9 -3 16 -2 16 3 0 5 6 10 13 11 31 2 73
14 82 24 7 7 -4 8 -35 3 -53 -8 -236 -95 -275 -131 -15 -14 -30 -22 -33 -19
-9 8 126 133 173 160 22 13 74 30 115 38 111 23 130 25 136 16 3 -5 13 -9 22
-9 13 0 13 2 -4 16 -17 14 -11 15 81 11 55 -2 91 -1 80 4 -28 11 -7 11 35 0
59 -16 121 -21 115 -11 -8 14 -8 13 74 -16 40 -14 74 -24 76 -22 11 11 -17 26
-75 41 l-65 17 64 -4 c53 -4 68 -9 82 -28 10 -13 14 -25 8 -26 -5 -2 -7 -7 -4
-11 5 -10 -86 14 -115 29 -12 6 -26 10 -32 8 -17 -6 162 -72 199 -73 7 0 26
-13 42 -29 29 -28 45 -25 19 3 -11 11 -10 12 1 6 9 -5 12 -3 9 6 -3 8 -11 13
-18 11 -7 -2 -20 4 -30 13 -9 8 -23 14 -31 12 -8 -2 -11 -2 -7 0 4 2 4 11 1
20 -9 23 95 -39 114 -68 10 -14 11 -19 3 -11 -8 6 -18 12 -23 12 -4 0 -5 -6 0
-12 4 -7 6 -23 5 -35 -2 -11 1 -24 7 -27 6 -4 6 -18 1 -36 -5 -16 -5 -32 0
-35 4 -3 11 5 14 18 7 21 7 21 16 2 5 -11 10 -56 11 -100 l3 -80 5 90 c5 75 9
90 24 93 9 2 17 -1 17 -7 0 -6 -8 -8 -17 -5 -12 4 -9 -1 7 -15 14 -11 28 -21
33 -21 4 0 7 -6 7 -13 0 -8 7 -28 15 -45 23 -45 24 -60 10 -139 -7 -46 -8 -70
-2 -66 7 4 7 -1 2 -13 -4 -10 -10 -32 -13 -49 -4 -27 -3 -29 12 -16 14 12 17
10 22 -18 5 -23 11 -30 21 -26 11 4 13 1 9 -11 -3 -8 -6 -18 -6 -20 0 -2 -7
-4 -15 -4 -8 0 -15 -4 -15 -10 0 -5 -6 -10 -14 -10 -8 0 -28 -17 -45 -37 l-31
-38 16 50 c9 28 21 58 26 68 5 11 7 22 3 25 -8 9 -25 -19 -25 -41 0 -10 -4
-16 -9 -13 -5 3 -12 -11 -15 -32 -4 -20 -10 -46 -13 -56 -4 -14 -1 -18 10 -13
11 4 14 2 10 -9 -3 -7 -11 -14 -19 -14 -8 0 -14 -4 -14 -10 0 -5 -8 -6 -17 -3
-13 5 -15 2 -10 -11 4 -9 3 -15 -2 -11 -11 6 -26 -13 -17 -22 3 -4 15 2 26 12
11 10 20 15 20 12 0 -3 11 4 25 17 14 13 25 28 25 33 0 13 70 93 81 93 6 0 7
-5 3 -12 -5 -7 -2 -9 8 -5 16 5 30 -15 43 -61 13 -45 -6 -129 -41 -182 -19
-29 -32 -56 -29 -60 10 -15 -28 -29 -53 -19 -13 5 -27 7 -32 4 -15 -9 -20 10
-22 89 -1 42 -6 76 -11 76 -6 0 -7 -29 -3 -72 5 -66 4 -71 -9 -53 -37 51 -44
59 -45 48 0 -7 14 -28 30 -46 20 -23 30 -45 30 -66 0 -20 -4 -30 -11 -26 -6 4
-8 13 -5 21 6 16 -14 54 -28 54 -5 0 -2 -8 7 -18 19 -21 23 -42 5 -24 -28 28
-29 9 -1 -20 25 -27 31 -41 31 -76 l-1 -43 -28 33 c-40 47 -37 66 5 31 18 -15
18 -14 -1 8 -13 14 -23 31 -23 37 0 7 -5 12 -11 12 -6 0 -9 -9 -6 -20 6 -23
-3 -26 -21 -8 -8 8 -12 8 -12 1 0 -6 7 -13 15 -17 8 -3 15 -15 15 -27 0 -18
-2 -19 -15 -9 -29 24 -14 -5 21 -41 28 -29 34 -42 29 -59 -7 -21 -8 -21 -37
14 -16 20 -34 36 -40 36 -6 0 7 -20 29 -43 55 -59 76 -94 67 -108 -5 -8 -10
-5 -18 9 -17 31 -97 114 -104 108 -3 -4 11 -23 31 -44 20 -21 37 -44 37 -52
-1 -15 -19 3 -68 64 -12 16 -25 27 -28 24 -3 -3 18 -33 46 -67 l51 -61 -18
-27 c-9 -16 -18 -30 -20 -32 -2 -3 -17 12 -34 33 -17 20 -34 34 -37 31 -3 -3
10 -21 29 -41 l34 -36 -49 -43 c-27 -24 -53 -42 -58 -39 -4 3 -8 1 -8 -5 0 -6
9 -15 20 -21 11 -6 19 -7 18 -3 -2 4 23 33 55 63 35 32 61 66 64 82 3 15 9 25
14 23 4 -3 9 5 12 17 3 19 5 20 11 7 9 -21 -61 -142 -76 -133 -7 4 -8 2 -4 -4
12 -19 -3 -35 -20 -21 -10 8 -14 8 -14 0 0 -6 5 -11 11 -11 6 0 1 -14 -11 -30
-12 -16 -18 -30 -13 -30 4 0 19 16 33 35 29 40 36 42 45 15 3 -11 11 -20 16
-20 6 0 2 13 -7 30 -10 16 -15 33 -11 37 6 6 20 -8 49 -51 4 -6 10 -8 13 -4 3
3 -6 20 -21 37 l-27 32 19 35 19 34 17 -22 c10 -13 18 -19 18 -14 0 5 -7 17
-16 27 -23 25 -8 45 17 23 10 -9 19 -12 19 -6 0 6 -7 15 -15 20 -14 7 -12 16
10 65 25 54 27 97 4 97 -5 0 -9 7 -9 15 0 8 5 15 10 15 6 0 13 -7 16 -15 4 -8
11 -15 17 -15 5 0 2 9 -8 20 -12 13 -18 39 -20 82 -2 65 2 88 14 69 4 -6 18
-14 31 -16 13 -2 26 -8 30 -12 3 -5 3 -48 0 -98 -7 -92 -14 -65 -11 37 1 31
-2 59 -8 62 -14 9 -25 -58 -16 -102 15 -78 25 -173 31 -322 l7 -155 -62 0
c-33 0 -61 4 -61 8 0 10 -119 1 -187 -14 -53 -11 -134 -60 -128 -77 3 -7 -2
-15 -9 -18 -8 -3 -27 -23 -42 -45 -16 -23 -35 -39 -46 -39 -13 0 -18 -5 -15
-14 8 -21 -16 -39 -33 -23 -10 10 -12 9 -7 -5 4 -10 3 -18 -1 -18 -4 0 -18 -3
-32 -6 -20 -4 -22 -3 -10 5 13 9 12 11 -6 11 -12 0 -33 -9 -47 -20 l-25 -20
-30 25 c-16 13 -31 22 -34 20 -3 -3 -13 5 -24 17 -16 18 -16 20 -2 15 10 -3
19 0 22 10 8 19 8 20 -28 29 -30 7 -32 2 -12 -47 5 -12 0 -18 -18 -23 -14 -3
-34 -15 -45 -27 -19 -20 -19 -20 -19 23 -1 23 4 48 10 55 6 7 7 13 3 13 -5 0
0 8 9 19 11 12 28 18 49 16 18 -2 42 -3 54 -4 17 -1 24 -9 29 -38 4 -21 11
-47 17 -57 8 -16 11 -17 18 -4 8 15 -7 100 -41 229 -19 73 -19 105 -1 56 11
-28 39 -47 59 -40 6 3 26 -7 43 -21 17 -14 39 -26 49 -26 10 0 22 -5 26 -12 5
-8 -3 -9 -29 -5 -21 3 -37 2 -37 -4 0 -15 76 -10 158 11 93 25 111 32 57 24
-79 -13 -147 -12 -182 3 -19 8 -33 16 -30 19 13 13 80 13 107 -1 20 -10 35
-12 52 -6 20 9 19 10 -14 10 -20 1 -40 6 -43 11 -8 13 51 13 76 -1 11 -5 28
-8 37 -6 11 3 6 7 -16 12 l-32 8 35 38 c39 44 41 49 21 49 -8 0 -21 -12 -28
-27 -14 -29 -43 -40 -121 -48 -50 -5 -67 3 -80 39 -4 10 -10 16 -14 13 -3 -4
2 -18 11 -31 21 -32 20 -36 -4 -36 -11 0 -27 12 -37 28 -10 15 -23 33 -30 40
-7 7 -10 19 -7 27 4 8 1 15 -6 15 -8 0 -11 -9 -8 -25 6 -31 4 -31 -51 0 -23
14 -49 25 -55 25 -7 0 -31 16 -53 35 -23 19 -46 35 -52 35 -12 0 -15 13 -4 23
3 4 16 -1 27 -10 19 -16 19 -16 7 -1 -7 9 -9 23 -5 29 5 9 10 7 15 -7 5 -13 8
-14 8 -4 0 8 -4 22 -9 30 -8 12 -10 12 -10 1 0 -8 -3 -11 -7 -7 -9 9 -15 35
-16 68 0 15 -3 25 -7 23 -10 -6 -30 50 -30 81 0 13 -5 24 -11 24 -6 0 -8 -8
-5 -17 48 -170 55 -231 21 -203 -8 7 -15 18 -15 24 0 6 4 4 10 -4 5 -8 12 -11
16 -7 4 3 2 12 -3 19 -6 7 -14 31 -18 53 -3 22 -17 77 -31 123 -13 45 -25 101
-26 122 -2 22 -6 40 -10 40 -8 0 -1 92 8 123 3 9 1 17 -5 17 -7 0 -12 26 -13
63 -1 42 -3 24 -8 -53 -6 -104 -4 -127 21 -245 16 -71 35 -155 43 -185 11 -40
12 -56 4 -61 -16 -10 92 -116 165 -162 51 -33 57 -40 51 -62 -4 -16 -2 -25 6
-25 8 0 11 -9 8 -25 -3 -14 -2 -25 1 -25 3 0 7 -21 8 -46 1 -43 0 -45 -20 -39
-39 13 -77 8 -100 -14 -13 -11 -31 -21 -41 -21 -18 0 -57 -18 -66 -30 -9 -12
-92 -62 -86 -51 4 6 2 11 -3 11 -6 0 -11 -6 -11 -12 -1 -24 -65 -85 -116 -111
-62 -31 -172 -150 -136 -146 4 0 25 24 47 52 74 94 142 115 232 72 l53 -27
-22 -18 c-19 -15 -21 -21 -10 -31 10 -11 12 -10 12 4 0 41 80 49 130 12 18
-13 58 -32 89 -41 31 -9 64 -21 75 -26 17 -9 15 -12 -20 -28 -22 -10 -33 -19
-26 -19 7 -1 26 6 42 14 27 14 29 14 35 -5 7 -21 45 -36 70 -26 9 3 18 19 21
35 6 27 9 29 36 24 24 -5 30 -2 34 14 5 19 8 19 33 7 40 -20 63 -49 119 -147
28 -48 53 -84 56 -78 6 10 -3 26 -92 162 -29 45 -51 84 -48 86 2 3 17 -14 32
-36 28 -42 41 -53 30 -25 -5 14 -4 15 9 4 17 -14 21 -35 5 -25 -18 11 -11 -6
33 -79 44 -71 53 -102 33 -103 -6 -1 -60 -7 -119 -14 -124 -14 -272 -3 -412
30 -102 25 -197 60 -190 71 3 4 -4 6 -15 3 -16 -4 -20 0 -21 18 -2 57 4 106
17 138 16 39 10 54 -10 26 -16 -22 -32 -174 -19 -185 20 -19 144 -63 246 -87
97 -23 134 -27 282 -27 105 -1 195 4 237 13 l67 13 -24 22 c-25 22 -99 146
-91 153 2 2 32 -34 67 -81 l63 -86 40 6 c56 9 235 84 326 138 341 202 573 556
631 965 28 199 -12 473 -97 671 -111 256 -316 486 -556 622 -96 54 -273 125
-331 133 -12 1 -60 10 -106 19 -126 24 -327 20 -473 -9z m-53 -155 c-3 -5 -15
-10 -26 -10 -11 0 -29 -5 -41 -11 -11 -6 -22 -8 -25 -5 -7 7 56 35 80 36 10 0
15 -4 12 -10z m815 -190 c6 -11 8 -21 5 -21 -23 -6 -33 -3 -52 15 -13 11 -23
28 -23 38 0 17 2 18 30 3 16 -8 34 -24 40 -35z m100 -336 c2 -38 2 -78 1 -89
-1 -19 -2 -19 -12 -2 -5 9 -7 22 -4 27 3 6 1 10 -5 10 -7 0 -8 6 0 19 14 27
13 51 -1 31 -8 -12 -9 -10 -5 10 3 14 6 43 6 65 2 66 18 10 20 -71z m20 -104
c0 -11 -4 -20 -9 -20 -5 0 -7 9 -4 20 3 11 7 20 9 20 2 0 4 -9 4 -20z m-30
-440 c0 -5 -5 -10 -11 -10 -5 0 -7 5 -4 10 3 6 8 10 11 10 2 0 4 -4 4 -10z
m-3 -52 c-3 -7 -5 -2 -5 12 0 14 2 19 5 13 2 -7 2 -19 0 -25z m-127 -128 c-1
-9 -14 1 -35 25 -18 21 -31 44 -28 49 8 12 63 -53 63 -74z m13 -54 l-17 -37
-17 22 c-9 13 -15 29 -12 36 8 20 21 15 26 -9 3 -20 5 -18 12 10 5 20 11 30
17 24 5 -5 2 -24 -9 -46z m-71 -68 c-7 -7 -12 -8 -12 -2 0 14 12 26 19 19 2
-3 -1 -11 -7 -17z m-544 -277 c-14 -5 -31 15 -23 29 5 8 11 6 20 -7 9 -11 10
-19 3 -22z m392 -45 c0 -7 -72 -47 -77 -43 -2 3 11 14 29 26 32 20 48 26 48
17z m-30 -54 c0 -5 -3 -12 -7 -16 -9 -9 -14 -45 -13 -98 l0 -37 -42 19 c-24
11 -53 20 -65 20 -13 0 -23 2 -23 5 0 15 44 63 54 59 6 -2 16 6 21 18 6 12 18
23 28 24 11 1 21 5 25 8 8 9 22 7 22 -2z m388 -104 c2 -41 2 -41 -17 -22 -12
13 -15 21 -7 26 7 5 6 8 -3 8 -11 0 -9 4 5 15 10 8 19 15 20 15 0 0 1 -19 2
-42z m-958 2 c0 -5 -15 -10 -32 -9 -28 0 -30 2 -13 9 28 12 45 12 45 0z m761
-16 c-30 -13 -56 -22 -59 -19 -3 2 8 10 24 16 16 6 38 15 49 19 47 20 35 7
-14 -16z m165 -14 c72 -41 93 -79 99 -179 3 -49 1 -81 -5 -81 -6 0 -10 5 -10
11 0 17 -60 100 -69 95 -9 -6 -136 133 -129 140 5 5 54 -47 100 -106 15 -19
28 -30 28 -25 0 25 -104 135 -140 147 -11 4 -9 8 10 16 40 17 62 14 116 -18z
m-950 2 c6 -4 14 -20 18 -37 7 -29 7 -29 -13 -11 -11 10 -18 23 -15 28 3 5 0
9 -7 7 -25 -3 -39 1 -39 11 0 12 40 13 56 2z m826 -30 c13 -16 67 -81 121
-145 83 -99 97 -121 97 -151 0 -20 -4 -36 -9 -36 -5 0 -31 29 -58 63 -135 177
-174 226 -202 250 -28 23 -30 27 -14 36 28 16 40 13 65 -17z m-877 8 c3 -5 -1
-10 -9 -10 -9 0 -16 5 -16 10 0 6 4 10 9 10 6 0 13 -4 16 -10z m964 -215 c56
-72 101 -132 101 -135 0 -11 -60 -28 -80 -23 -13 4 -20 0 -20 -9 0 -13 -48
-44 -55 -36 -1 2 -8 14 -15 28 -24 49 -146 224 -188 271 -24 27 -40 53 -37 59
4 6 30 22 58 34 l52 24 42 -42 c23 -22 87 -99 142 -171z m-984 195 c12 -19 -5
-28 -29 -17 -13 7 -22 15 -20 19 7 11 42 10 49 -2z m100 -47 c16 -23 16 -27 1
-41 -15 -15 -19 -13 -53 20 -20 21 -34 41 -30 44 4 4 23 -8 42 -26 19 -19 35
-29 35 -24 0 6 -13 23 -30 39 -16 16 -30 33 -30 37 0 14 47 -22 65 -49z m115
31 c0 -12 -9 -15 -37 -12 -28 2 -38 -1 -43 -16 -5 -15 -9 -16 -14 -7 -10 16 6
33 47 47 36 13 47 10 47 -12z m56 -21 c-8 -8 -36 10 -36 25 0 13 3 12 20 -3
11 -10 18 -20 16 -22z m-292 -18 c-4 -18 -4 -18 8 -4 12 15 17 14 51 -17 20
-19 36 -38 36 -42 -4 -21 3 -23 21 -7 11 10 20 14 20 9 0 -5 4 -3 9 4 7 11 21
8 72 -16 35 -16 74 -33 86 -36 29 -9 52 -36 29 -36 -9 0 -21 -8 -27 -18 -11
-18 -15 -17 -83 6 -84 28 -96 36 -89 62 3 11 0 20 -6 20 -6 0 -11 -7 -11 -15
0 -13 -4 -14 -21 -4 -12 6 -33 9 -48 6 -18 -4 -33 1 -48 15 -12 12 -44 27 -70
34 l-48 13 38 0 c21 1 54 -6 74 -14 29 -12 38 -13 45 -3 11 18 10 28 -3 28 -5
0 -7 -4 -4 -10 8 -13 -11 -13 -36 1 -11 5 -38 11 -60 11 l-40 0 26 28 c24 25
30 27 56 17 22 -9 28 -16 23 -32z m584 -7 c3 -33 1 -36 -18 -31 -28 7 -32 17
-20 48 14 36 34 27 38 -17z m137 -25 c46 -50 203 -283 207 -308 2 -11 -3 -21
-12 -22 -10 -2 -35 28 -69 81 -30 47 -59 82 -64 79 -6 -3 -7 -1 -3 5 6 10 -28
57 -106 150 -15 19 -17 27 -7 38 15 19 14 19 54 -23z m-458 -13 c60 -17 76
-26 88 -50 20 -38 19 -47 -3 -27 -10 9 -34 23 -53 30 -75 29 -139 61 -139 70
0 4 8 6 18 3 9 -2 50 -14 89 -26z m245 0 l33 -29 -22 -16 c-24 -17 -32 -50
-10 -42 6 2 12 10 12 17 0 7 6 15 13 18 15 5 17 -54 1 -64 -32 -19 -89 51 -89
110 0 45 18 47 62 6z m113 10 c3 -5 11 -7 18 -5 11 4 128 -157 204 -283 l33
-53 -22 -8 c-26 -9 -42 7 -78 83 -23 49 -98 153 -150 211 -15 17 -27 38 -27
48 0 18 12 23 22 7z m-22 -53 c76 -76 124 -142 168 -229 65 -129 30 -109 -90
50 -30 40 -58 72 -62 72 -3 0 -18 12 -33 26 -28 29 -34 72 -13 93 10 10 8 11
-8 5 -11 -4 -17 -4 -13 1 4 4 0 14 -10 21 -11 9 -12 13 -4 14 7 0 36 -24 65
-53z m-157 -25 c39 -52 43 -72 13 -72 -18 0 -19 2 -9 15 10 12 10 15 -3 15 -8
0 -18 -6 -20 -12 -4 -9 -12 -5 -26 12 -24 29 -36 64 -27 85 8 22 33 8 72 -43z
m-60 -53 c19 -21 21 -65 4 -82 -14 -15 -44 1 -62 33 -17 29 -16 31 4 50 27 25
30 25 54 -1z"/>
<path d="M1845 2360 c3 -5 8 -10 11 -10 2 0 4 5 4 10 0 6 -5 10 -11 10 -5 0
-7 -4 -4 -10z"/>
<path d="M1533 720 c-29 -12 -29 -27 -3 -35 25 -8 51 11 43 31 -6 16 -9 16
-40 4z"/>
<path d="M1881 664 c0 -5 44 -47 96 -94 53 -46 91 -75 85 -64 -9 17 -67 71
-164 152 -10 9 -18 11 -17 6z"/>
<path d="M1732 533 c18 -20 47 -44 63 -55 17 -11 22 -17 12 -14 -11 3 -1 -11
22 -34 41 -40 66 -55 40 -22 -8 9 -21 30 -29 46 -28 54 -88 114 -115 114 l-27
0 34 -35z"/>
<path d="M1886 427 c3 -10 9 -15 12 -12 3 3 0 11 -7 18 -10 9 -11 8 -5 -6z"/>
<path d="M1815 406 c10 -14 19 -26 22 -26 7 0 -17 39 -28 46 -6 3 -3 -5 6 -20z"/>
<path d="M1875 370 c-3 -6 -11 -8 -16 -5 -16 11 -10 -11 12 -39 11 -14 25 -24
30 -20 5 3 8 0 7 -8 -2 -7 4 -13 12 -13 8 0 18 -4 22 -10 4 -5 10 -6 14 -2 4
4 -5 20 -19 35 -15 16 -27 33 -27 39 0 17 -27 36 -35 23z m25 -41 c0 -6 -4 -7
-10 -4 -5 3 -10 11 -10 16 0 6 5 7 10 4 6 -3 10 -11 10 -16z"/>
<path d="M1935 360 c-4 -6 -1 -9 7 -8 8 2 12 -4 10 -14 -2 -11 3 -18 13 -18 8
0 15 -9 15 -20 0 -14 7 -20 21 -20 11 0 17 5 14 10 -4 6 -11 7 -17 4 -7 -4 -8
-2 -4 5 8 12 -29 71 -44 71 -5 0 -12 -5 -15 -10z"/>
<path d="M1099 464 c-10 -13 -10 -17 1 -24 15 -9 30 4 30 28 0 17 -15 15 -31
-4z"/>
<path d="M1140 426 c21 -20 71 -30 68 -14 -2 8 5 12 16 10 11 -2 15 1 11 7 -8
15 -38 14 -53 -1 -9 -9 -15 -9 -24 0 -7 7 -17 12 -22 12 -6 0 -4 -6 4 -14z"/>
<path d="M1309 2525 c-3 -2 -21 -5 -41 -7 -20 -1 -34 -6 -32 -10 3 -4 -7 -8
-21 -8 -14 0 -24 -4 -20 -9 3 -5 -11 -15 -31 -21 -21 -7 -55 -25 -78 -40 -22
-16 -44 -26 -49 -23 -4 2 -18 -1 -30 -9 -12 -8 -54 -26 -92 -42 -43 -16 -90
-45 -120 -72 -46 -42 -46 -52 0 -15 11 8 -2 -8 -29 -37 -28 -28 -46 -55 -42
-59 5 -5 11 -2 13 5 3 6 9 9 14 6 6 -3 15 -1 22 4 7 5 23 13 35 17 21 6 23 5
13 -13 -16 -30 -14 -39 4 -16 8 10 15 14 15 9 0 -17 -21 -34 -36 -28 -7 2 -10
12 -7 21 3 10 -4 7 -16 -8 -11 -14 -25 -41 -31 -61 -5 -20 -19 -44 -30 -54
-11 -10 -20 -23 -20 -29 0 -6 14 4 30 22 17 18 30 30 30 26 0 -4 -7 -15 -16
-25 -10 -11 -12 -19 -5 -24 10 -6 31 32 31 55 0 5 9 14 21 20 13 8 18 17 14
28 -3 9 -3 13 1 9 4 -4 14 -1 21 5 12 10 14 8 11 -7 -1 -10 3 -20 11 -23 8 -3
11 0 7 7 -5 8 2 11 23 9 18 -1 31 -8 31 -16 0 -9 -7 -11 -20 -7 -24 8 -48 -4
-30 -15 9 -6 9 -12 -1 -29 -18 -27 -33 -28 -18 0 9 17 8 24 -6 38 -17 15 -17
15 -11 -3 5 -16 2 -17 -19 -12 -24 6 -25 5 -15 -14 6 -11 15 -20 20 -20 16 0
11 -37 -7 -51 -15 -12 -16 -12 -10 4 5 12 3 16 -5 11 -8 -5 -9 -2 -5 9 3 10 2
17 -3 17 -13 0 -13 -16 0 -41 8 -14 5 -29 -11 -61 -23 -47 -41 -108 -30 -108
3 0 15 24 26 53 11 28 24 52 28 52 9 0 48 -101 46 -120 0 -5 -9 8 -19 30 -29
62 -23 26 11 -72 38 -107 50 -123 46 -59 -1 26 1 50 5 52 4 3 8 34 8 69 0 46
4 66 15 72 12 7 13 16 6 41 -6 20 -6 32 0 32 5 0 9 7 9 14 0 8 16 27 36 42 29
22 45 27 82 25 31 -1 54 3 67 14 19 14 19 15 -8 5 -16 -5 -40 -10 -55 -9 -24
0 -22 2 13 15 22 7 29 12 15 9 -14 -3 -49 -8 -78 -11 -34 -5 -49 -10 -40 -15
10 -6 8 -11 -7 -23 -11 -8 -20 -14 -21 -13 0 1 1 21 4 45 3 31 9 42 21 42 10
0 12 -3 4 -8 -6 -4 36 -7 93 -8 57 0 104 3 104 8 0 4 -12 8 -27 8 -26 0 -26 1
-7 15 10 8 28 14 39 14 20 0 20 0 0 -9 -16 -7 -17 -9 -3 -9 25 -1 49 10 42 20
-3 5 4 9 15 9 12 0 21 4 21 9 0 4 28 14 62 21 66 12 124 37 114 47 -3 4 4 17
16 30 31 33 10 29 -27 -6 -23 -22 -35 -27 -50 -21 -19 8 -19 9 1 9 12 1 26 7
32 14 9 11 -10 20 -93 45 -57 18 -113 32 -125 32 -24 0 -27 -15 -2 -16 23 -1
201 -49 208 -56 3 -3 -10 -6 -30 -6 -19 0 -39 -3 -45 -6 -6 -4 -38 0 -71 9
-33 9 -65 13 -70 10 -5 -3 -60 -7 -122 -9 -123 -3 -136 -7 -163 -49 -26 -40
-31 -25 -6 16 18 30 35 44 61 52 3 1 22 10 43 20 25 13 33 21 25 26 -7 5 -20
1 -29 -7 -10 -9 -24 -16 -32 -18 -8 -1 -26 -9 -40 -19 -15 -9 -29 -17 -33 -17
-3 0 -24 -16 -47 -35 -22 -19 -42 -33 -45 -31 -7 7 61 65 101 87 22 11 36 23
33 26 -2 3 -20 -4 -39 -16 -40 -24 -61 -28 -32 -5 30 24 126 65 136 58 5 -3
25 7 46 23 32 25 35 26 25 6 -15 -27 -15 -33 -1 -33 5 0 8 4 4 9 -9 16 65 68
114 81 25 6 54 16 63 21 10 5 29 9 43 9 14 0 25 5 25 10 0 6 7 10 16 10 9 0
12 -5 8 -12 -6 -10 -4 -10 7 0 7 6 31 12 54 11 l40 0 -50 -15 c-27 -8 -65 -17
-82 -20 -18 -4 -33 -11 -33 -15 0 -5 -7 -9 -15 -9 -19 0 -129 -49 -124 -55 3
-2 45 11 94 30 112 43 152 44 234 5 35 -17 66 -28 69 -25 3 2 -12 12 -33 21
-26 11 -34 18 -26 24 8 4 -10 10 -45 15 l-59 8 51 14 c47 13 58 13 108 -1 33
-10 66 -27 78 -41 22 -25 50 -36 29 -12 -8 11 -6 13 11 12 11 -1 27 -10 34
-20 17 -23 18 -15 2 19 -11 25 -44 44 -55 32 -4 -3 1 -6 10 -6 10 0 17 -4 17
-10 0 -23 -49 3 -80 43 -12 15 -31 27 -43 26 l-22 0 21 -9 c12 -5 25 -14 30
-21 4 -7 3 -10 -2 -7 -97 51 -126 61 -145 50 -23 -15 -73 -16 -64 -2 6 10 2
14 -6 5z m111 -15 c12 -8 9 -10 -13 -10 -16 0 -26 4 -22 10 8 12 16 12 35 0z
m-173 -26 c-3 -3 -12 -4 -19 -1 -8 3 -5 6 6 6 11 1 17 -2 13 -5z m52 -240 c25
5 25 5 4 -6 -13 -6 -23 -15 -23 -20 0 -5 9 -4 19 2 27 14 48 13 34 -1 -14 -14
-69 -22 -173 -24 -124 -3 -119 -2 -113 -25 4 -15 14 -20 42 -21 33 -1 34 -2
11 -9 -37 -12 -115 -11 -189 1 -36 6 -68 13 -70 15 -2 1 6 15 18 30 18 23 31
28 84 32 76 5 67 -11 -11 -19 l-57 -6 56 -2 c61 -1 111 21 76 35 -10 3 -40 4
-67 2 -28 -3 -50 -2 -50 2 0 12 120 29 143 20 20 -8 199 -31 229 -29 27 2 -48
18 -116 26 -64 7 -67 8 -31 13 22 3 67 -1 99 -8 33 -7 71 -11 85 -8z m-451
-13 c-8 -12 -18 -18 -21 -14 -4 3 0 15 10 25 21 24 29 15 11 -11z m330 -58
c-21 -2 -57 -2 -80 0 -24 2 -7 4 37 4 44 0 63 -2 43 -4z m-398 -53 c-6 -12
-14 -19 -17 -17 -2 3 1 15 7 27 6 12 14 19 17 17 2 -3 -1 -15 -7 -27z m130
-49 c-5 -11 -7 -26 -4 -34 3 -8 -6 -25 -20 -38 -19 -17 -25 -34 -25 -59 1 -21
3 -27 6 -15 3 11 9 25 15 30 6 6 7 -1 1 -20 -4 -16 -8 -56 -7 -87 0 -32 -4
-58 -8 -58 -5 0 -8 6 -7 13 1 6 -4 26 -11 42 -7 17 -13 46 -12 65 1 26 -1 31
-8 20 -8 -13 -10 -13 -10 2 0 9 -4 18 -9 20 -5 2 0 14 11 28 l21 25 -5 -27
c-6 -34 -1 -36 11 -5 12 31 12 42 2 42 -24 0 -19 14 8 26 17 8 31 18 31 22 0
5 -4 5 -10 2 -6 -3 -7 1 -4 9 3 9 15 16 25 16 16 0 18 -3 9 -19z m-51 -321
l-1 -25 -8 25 c-4 14 -8 32 -9 40 -1 13 0 13 9 0 5 -8 9 -26 9 -40z"/>
<path d="M861 2176 c10 -10 169 -35 164 -26 -3 5 -29 11 -58 15 -28 3 -65 9
-82 12 -16 3 -27 2 -24 -1z"/>
<path d="M851 1884 c0 -11 3 -14 6 -6 3 7 2 16 -1 19 -3 4 -6 -2 -5 -13z"/>
<path d="M1124 2489 c12 -8 25 -8 40 -1 18 9 16 11 -19 11 -33 0 -37 -1 -21
-10z"/>
<path d="M1035 2479 c-16 -6 -41 -12 -55 -15 -36 -8 -38 -14 -4 -13 33 1 140
37 109 37 -11 0 -33 -4 -50 -9z"/>
<path d="M1538 2411 c17 -15 32 -32 32 -38 0 -6 6 -16 13 -22 11 -8 14 -7 14
6 0 17 -65 83 -82 82 -5 0 5 -12 23 -28z"/>
<path d="M1680 2422 c0 -11 4 -23 9 -27 6 -3 8 4 6 16 -6 30 -15 37 -15 11z"/>
<path d="M2414 2330 c116 -127 253 -358 281 -472 4 -16 12 -25 18 -21 5 3 7 1
4 -4 -4 -6 5 -55 20 -109 24 -91 26 -116 26 -309 1 -227 -3 -257 -64 -444
-134 -414 -485 -752 -912 -877 -54 -16 -94 -30 -89 -32 11 -3 192 53 249 78
25 11 50 17 56 13 6 -3 7 -1 3 5 -4 7 -3 12 3 12 15 0 24 -20 9 -21 -41 -4
-78 -18 -78 -30 0 -5 -3 -8 -7 -7 -5 1 -17 -3 -29 -9 -11 -7 -29 -12 -40 -11
-10 1 -57 -11 -104 -26 -105 -34 -180 -43 -340 -44 l-125 0 163 9 c90 5 178
13 195 18 23 7 12 8 -38 3 -128 -13 -414 -6 -486 11 -36 9 -77 14 -90 11 -16
-4 -20 -3 -11 3 8 6 -6 15 -45 27 -163 51 -364 166 -498 287 -45 41 -56 48
-30 20 43 -46 154 -133 245 -192 106 -68 268 -140 388 -171 104 -27 138 -31
297 -35 214 -6 331 9 480 60 219 74 386 177 540 332 183 183 321 432 370 671
20 97 19 164 -1 79 -19 -82 -66 -226 -72 -221 -2 3 5 33 16 68 42 129 51 187
62 396 10 200 9 218 -10 294 -11 44 -20 83 -20 85 0 2 -4 2 -8 -1 -4 -3 -9 11
-9 29 -1 39 -74 196 -136 295 -62 97 -149 209 -203 260 -34 32 -27 23 20 -30z
m343 -632 c-3 -8 -6 -5 -6 6 -1 11 2 17 5 13 3 -3 4 -12 1 -19z m20 -165 c-3
-10 -5 -4 -5 12 0 17 2 24 5 18 2 -7 2 -21 0 -30z m-91 -669 c-15 -14 -20 -28
-17 -46 0 -5 -3 -8 -8 -8 -5 0 -9 -6 -8 -12 0 -7 -1 -22 -2 -33 -1 -17 -3 -18
-11 -5 -8 12 -10 9 -10 -13 0 -16 -4 -26 -9 -23 -9 6 -26 -22 -22 -37 3 -14
-40 -78 -49 -72 -4 2 -10 -8 -13 -23 -8 -36 -145 -195 -163 -188 -7 3 -11 0
-9 -7 6 -15 -72 -80 -85 -72 -6 4 -9 1 -8 -6 3 -16 -149 -122 -163 -113 -5 3
-9 0 -9 -6 0 -6 -4 -8 -10 -5 -5 3 -10 0 -10 -8 0 -16 -37 -30 -53 -20 -8 5
105 75 119 73 3 -1 11 6 18 16 7 9 18 14 25 10 6 -4 10 -3 9 2 -2 5 31 36 72
69 41 34 88 75 104 92 16 17 33 28 38 25 5 -3 7 -1 6 4 -5 15 62 93 74 86 6
-4 9 -1 6 7 -5 12 42 84 65 100 5 3 8 9 7 13 -2 14 67 126 74 119 4 -5 6 -1 5
7 -2 8 8 42 21 74 18 44 26 54 28 38 2 -12 -4 -29 -12 -38z m-1413 -831 c-7
-2 -21 -2 -30 0 -10 3 -4 5 12 5 17 0 24 -2 18 -5z"/>
<path d="M2439 483 c-13 -16 -12 -17 4 -4 16 13 21 21 13 21 -2 0 -10 -8 -17
-17z"/>
<path d="M2379 423 c-13 -16 -12 -17 4 -4 16 13 21 21 13 21 -2 0 -10 -8 -17
-17z"/>
<path d="M2319 363 c-13 -16 -12 -17 4 -4 16 13 21 21 13 21 -2 0 -10 -8 -17
-17z"/>
<path d="M2224 288 l-19 -23 23 19 c21 18 27 26 19 26 -2 0 -12 -10 -23 -22z"/>
<path d="M1280 2382 c0 -4 8 -8 18 -8 9 -1 31 -4 47 -8 l30 -7 -25 15 c-27 16
-70 21 -70 8z"/>
<path d="M1398 2370 c18 -11 36 -20 40 -20 14 1 -43 40 -58 40 -8 0 0 -9 18
-20z"/>
<path d="M1535 2360 c4 -14 12 -29 17 -35 7 -7 8 -2 3 15 -4 14 -12 30 -17 35
-7 7 -8 2 -3 -15z"/>
<path d="M1275 2334 c44 -13 84 -23 90 -21 13 5 -127 47 -152 46 -10 0 18 -11
62 -25z"/>
<path d="M1315 2349 c17 -6 54 -22 83 -35 30 -14 56 -23 59 -20 9 8 -97 55
-138 61 l-34 5 30 -11z"/>
<path d="M934 2336 c-10 -8 -16 -17 -13 -20 3 -3 14 3 24 14 21 23 17 26 -11
6z"/>
<path d="M1660 2335 c-10 -12 -10 -22 0 -47 16 -40 30 -58 30 -37 0 8 -7 24
-15 35 -15 23 -11 34 14 34 13 0 13 -2 2 -9 -10 -6 -10 -10 -1 -16 15 -9 20
-3 26 29 4 22 1 26 -20 26 -13 0 -29 -7 -36 -15z"/>
<path d="M1473 2303 c-15 -21 -30 -40 -34 -43 -3 -3 -12 -15 -20 -27 -20 -30
-90 -77 -82 -56 4 11 -4 9 -30 -8 -20 -13 -37 -28 -37 -33 0 -4 11 -1 25 8 39
26 48 9 18 -32 -26 -36 -26 -36 21 8 27 25 70 71 96 102 26 31 51 54 54 51 12
-12 6 -24 -19 -35 -13 -6 -22 -14 -20 -18 2 -4 -10 -21 -27 -38 -16 -18 -26
-32 -22 -32 9 0 30 20 92 88 33 35 55 42 45 15 -6 -16 -5 -16 10 -4 18 14 24
36 7 26 -9 -6 -14 8 -11 28 1 10 -17 9 -23 -2 -4 -5 -1 -11 6 -13 8 -3 7 -6
-3 -10 -9 -3 -22 -2 -30 2 -11 7 -9 14 11 34 13 15 18 26 12 26 -6 0 -24 -17
-39 -37z"/>
<path d="M1598 2303 c-8 -10 -22 -30 -31 -46 -14 -21 -23 -26 -40 -22 -26 7
-67 -28 -48 -40 6 -3 11 -1 11 5 0 6 5 8 10 5 6 -4 16 -3 23 3 18 14 47 22 47
14 0 -5 -17 -18 -39 -30 -43 -24 -79 -61 -49 -50 10 4 19 1 22 -9 4 -9 9 -13
13 -10 3 4 0 13 -6 21 -13 16 -16 14 64 56 31 17 62 27 67 24 7 -4 4 -10 -6
-16 -9 -5 -16 -14 -16 -19 0 -6 5 -7 12 -3 7 5 8 2 3 -7 -5 -8 -4 -11 1 -6 5
5 9 14 9 20 0 5 6 12 13 15 10 3 10 -5 -2 -33 -19 -44 -19 -48 -7 -40 5 3 12
1 16 -5 9 -15 -5 -51 -16 -44 -6 3 -8 8 -5 11 3 3 0 15 -6 27 -7 11 -13 26
-14 31 0 6 -2 14 -2 19 -1 4 -17 -14 -36 -40 -37 -54 -39 -75 -2 -29 28 34 45
18 20 -20 -9 -14 -12 -25 -6 -25 6 0 14 10 18 22 l7 22 19 -24 c13 -16 16 -26
8 -34 -5 -5 -10 -15 -10 -21 0 -5 7 -2 15 9 13 17 15 17 30 3 9 -10 11 -18 5
-22 -5 -3 -10 -11 -10 -17 0 -7 6 -6 15 2 8 7 15 19 15 27 0 8 5 11 11 8 7 -5
5 -15 -5 -31 -22 -32 -20 -39 13 -87 27 -40 47 -98 43 -124 -2 -6 2 -14 8 -18
5 -3 10 -1 10 5 0 6 4 9 9 5 5 -3 12 4 16 15 4 11 11 18 16 15 5 -4 9 0 9 8 0
25 -14 28 -28 5 -13 -23 -13 -23 -7 4 4 22 2 26 -10 22 -8 -4 -15 -1 -15 5 0
6 4 11 8 11 5 0 18 13 30 29 19 26 19 31 6 42 -12 9 -13 9 -9 -2 2 -8 -5 -25
-16 -39 -17 -20 -20 -21 -14 -5 13 39 16 67 5 60 -5 -3 -10 -13 -10 -21 0 -8
-4 -14 -10 -14 -5 0 -7 -8 -4 -17 5 -16 4 -16 -10 1 -14 17 -13 20 10 39 16
12 23 26 20 36 -5 13 -3 12 8 -2 9 -12 16 -14 21 -8 3 6 1 11 -5 11 -6 0 -8 5
-4 12 4 7 3 8 -4 4 -16 -9 -15 7 0 22 8 8 8 12 1 12 -6 0 -17 -15 -24 -32 -12
-31 -35 -57 -50 -58 -18 -1 -18 35 -1 50 28 23 44 67 27 74 -9 3 -12 0 -8 -10
6 -17 -13 -19 -23 -2 -4 6 6 23 24 39 18 16 41 52 52 81 23 62 23 58 10 58 -5
0 -10 -6 -10 -14 0 -7 -13 -29 -30 -47 -16 -19 -28 -39 -26 -44 2 -6 -8 -24
-21 -40 -14 -17 -22 -23 -18 -15 5 8 14 22 22 31 12 14 12 17 -2 22 -10 4 -15
1 -15 -11 0 -10 -5 -23 -12 -30 -8 -8 -8 -15 2 -27 7 -8 8 -15 2 -15 -21 0
-34 28 -23 49 14 25 14 27 -4 44 -21 21 -1 68 41 95 19 12 34 18 34 13 0 -13
-26 -32 -33 -24 -4 3 -7 -1 -7 -9 0 -9 -7 -18 -15 -22 -16 -6 -21 -36 -5 -36
5 0 7 -8 3 -17 -5 -15 -3 -16 7 -6 11 10 11 15 0 28 -12 14 -11 18 1 26 8 5
17 9 22 9 12 0 8 -18 -5 -23 -10 -4 -9 -8 2 -16 20 -14 36 14 19 35 -10 12 -8
19 11 39 13 14 18 25 11 25 -7 0 -9 5 -5 11 3 6 15 9 25 6 11 -3 19 -1 19 4 0
5 -13 9 -30 9 -16 0 -30 -4 -30 -9 0 -11 -37 -36 -67 -45 -18 -6 -22 -4 -17 8
5 12 2 15 -12 10 -18 -5 -18 -5 -2 9 10 8 14 17 11 21 -4 4 -20 -8 -35 -26
-20 -25 -30 -30 -38 -22 -15 15 0 44 36 73 17 13 21 21 12 21 -8 0 -22 -8 -30
-17z m179 -168 c-4 -8 -11 -15 -17 -15 -7 0 -7 6 0 21 13 23 26 19 17 -6z"/>
<path d="M983 2293 c-40 -16 -44 -27 -5 -12 15 6 72 10 127 9 54 0 96 2 93 5
-13 13 -183 12 -215 -2z"/>
<path d="M1888 2231 c-12 -50 -10 -77 3 -64 5 5 9 30 7 54 l-3 44 -7 -34z"/>
<path d="M1586 2181 c-9 -16 -36 -46 -60 -68 -26 -23 -39 -40 -30 -40 9 0 37
25 62 54 54 63 67 83 53 83 -6 0 -17 -13 -25 -29z"/>
<path d="M1926 2166 c-3 -13 -9 -32 -12 -43 -5 -12 -4 -15 3 -8 15 14 34 75
24 75 -5 0 -12 -11 -15 -24z"/>
<path d="M1820 2124 c-8 -24 -17 -34 -26 -30 -8 3 -14 1 -14 -4 0 -12 20 -13
36 -2 12 7 30 72 21 72 -3 0 -11 -16 -17 -36z"/>
<path d="M1938 2123 c-10 -18 -19 -60 -22 -109 -2 -48 -1 -69 4 -54 4 14 8 39
9 56 1 17 8 45 17 62 8 18 14 41 12 53 -3 19 -5 18 -20 -8z"/>
<path d="M1881 2108 c-1 -19 4 -28 14 -28 8 0 15 5 15 11 0 5 -4 8 -9 4 -5 -3
-12 5 -14 17 -4 20 -4 19 -6 -4z"/>
<path d="M1831 2052 c-6 -12 -11 -27 -11 -34 1 -7 8 0 16 15 9 16 13 31 11 34
-3 2 -10 -4 -16 -15z"/>
<path d="M1469 2033 c-12 -15 -12 -16 4 -10 10 4 23 7 28 7 5 0 9 5 9 10 0 16
-26 12 -41 -7z"/>
<path d="M1876 2019 c-3 -17 -6 -42 -6 -55 0 -12 -4 -26 -10 -29 -6 -4 -7 6
-3 27 3 18 3 30 -1 26 -5 -3 -9 -22 -11 -41 -2 -20 -8 -45 -15 -56 -6 -12 -7
-21 -3 -21 16 0 52 79 59 129 7 56 0 70 -10 20z"/>
<path d="M1942 2030 c0 -14 2 -19 5 -12 2 6 2 18 0 25 -3 6 -5 1 -5 -13z"/>
<path d="M1289 1985 c-53 -19 -99 -44 -99 -54 0 -4 27 5 60 20 33 16 64 29 70
29 5 0 10 5 10 10 0 6 -1 10 -2 9 -2 0 -19 -6 -39 -14z"/>
<path d="M1740 1980 c-8 -5 -12 -11 -9 -14 2 -3 11 -1 19 4 8 5 12 11 9 14 -2
3 -11 1 -19 -4z"/>
<path d="M751 1957 c-13 -21 -12 -21 5 -5 10 10 16 20 13 22 -3 3 -11 -5 -18
-17z"/>
<path d="M1590 1976 c0 -5 6 -17 14 -25 18 -21 32 -66 18 -57 -6 3 -18 -4 -27
-16 -15 -22 -17 -22 -26 -5 -9 15 -13 16 -27 5 -14 -11 -15 -10 -9 7 7 19 6
19 -7 3 -18 -24 -29 -23 -17 1 12 22 61 26 61 5 0 -8 5 -14 10 -14 17 0 11 28
-7 39 -10 5 -15 12 -11 16 3 3 15 -4 27 -16 16 -17 21 -19 21 -7 0 21 -30 44
-60 46 -18 1 -21 -1 -10 -8 19 -12 11 -19 -26 -24 -16 -2 -36 -7 -45 -10 -20
-9 -84 -115 -74 -124 4 -4 10 -2 12 5 2 6 15 23 28 37 14 15 22 33 19 41 -7
17 4 19 25 6 10 -7 2 -20 -37 -60 -53 -54 -78 -65 -67 -31 5 15 3 18 -9 14 -9
-3 -16 -15 -16 -26 0 -10 4 -17 9 -13 15 8 25 -15 12 -28 -6 -6 -11 -16 -11
-21 0 -6 7 -2 16 9 8 11 18 20 22 20 13 1 72 59 72 71 0 6 10 19 22 30 l21 19
-19 -30 c-18 -30 -18 -30 1 -13 11 9 36 19 55 23 28 5 42 1 69 -19 41 -30 51
-33 28 -8 -8 9 -16 22 -16 27 -1 6 -5 10 -11 10 -13 0 -14 19 -2 23 8 2 51
-57 57 -78 7 -25 19 -39 33 -38 9 0 25 -3 35 -7 9 -4 17 -3 17 2 0 5 -16 15
-35 22 -19 6 -34 15 -33 19 1 4 -3 17 -10 28 -6 12 -8 25 -4 29 4 5 3 6 -3 3
-15 -8 -49 28 -35 37 7 4 16 1 21 -6 7 -11 9 -10 9 4 0 9 -7 17 -15 17 -8 0
-15 3 -15 8 0 11 -49 68 -50 58z"/>
<path d="M1349 1879 c-6 -12 -29 -41 -51 -65 -22 -24 -36 -44 -31 -44 11 0 49
40 88 93 15 20 22 37 17 37 -6 0 -16 -10 -23 -21z"/>
<path d="M1967 1874 c-4 -4 -7 -14 -7 -23 0 -11 3 -12 11 -4 6 6 10 16 7 23
-2 6 -7 8 -11 4z"/>
<path d="M1730 1867 c0 -11 30 -67 35 -67 6 0 -16 52 -27 65 -4 5 -8 6 -8 2z"/>
<path d="M970 1842 c0 -4 5 -13 12 -20 9 -9 9 -12 1 -12 -7 0 -15 5 -18 10
-10 16 -42 12 -49 -6 -10 -26 -7 -64 5 -64 8 0 8 -4 2 -12 -6 -8 -7 -35 -4
-63 8 -60 20 -39 23 42 1 29 5 49 8 45 3 -4 21 -8 40 -10 19 -1 37 -6 40 -11
8 -12 117 -8 130 5 8 8 4 16 -15 28 -15 10 -29 15 -32 12 -4 -3 -12 -1 -20 6
-7 6 -16 8 -20 5 -3 -4 -18 2 -33 13 -16 11 -33 20 -39 20 -6 0 -11 5 -11 10
0 6 -4 10 -10 10 -5 0 -10 -4 -10 -8z m-38 -54 c-7 -7 -12 -8 -12 -2 0 14 12
26 19 19 2 -3 -1 -11 -7 -17z m38 1 c0 -5 -4 -9 -10 -9 -5 0 -10 7 -10 16 0 8
5 12 10 9 6 -3 10 -10 10 -16z m60 1 c0 -4 11 -10 25 -12 13 -3 22 -1 19 3 -3
5 0 9 5 9 6 0 11 -7 11 -15 0 -18 17 -20 22 -3 3 9 6 9 12 0 10 -17 -38 -26
-63 -12 -12 6 -27 8 -33 4 -6 -4 -8 -3 -5 3 4 6 0 13 -8 17 -8 3 -15 10 -15
15 0 6 7 8 15 5 8 -4 15 -10 15 -14z m-26 -30 c-6 -5 -24 21 -24 34 0 6 6 1
14 -10 8 -10 12 -21 10 -24z"/>
<path d="M1856 1811 c4 -23 2 -36 -7 -42 -11 -7 -10 -9 4 -9 19 0 22 31 6 65
-7 15 -7 11 -3 -14z"/>
<path d="M1590 1800 c0 -9 39 -25 45 -18 2 2 -7 8 -21 15 -13 6 -24 7 -24 3z"/>
<path d="M1815 1773 c-4 -13 -11 -20 -16 -17 -12 7 -12 -9 0 -21 5 -6 11 -21
13 -35 l4 -25 13 30 c9 21 10 39 3 60 -10 29 -10 29 -17 8z"/>
<path d="M1560 1772 c0 -4 17 -14 38 -21 20 -8 49 -22 64 -32 32 -23 45 -24
27 -3 -14 17 -101 64 -119 64 -5 0 -10 -4 -10 -8z"/>
<path d="M1470 1745 c-45 -25 -90 -67 -90 -86 0 -5 17 8 38 29 21 21 52 44 70
51 18 7 32 17 32 22 0 11 3 12 -50 -16z"/>
<path d="M990 1731 c0 -8 41 -23 47 -17 2 1 -8 8 -22 14 -14 6 -25 8 -25 3z"/>
<path d="M1521 1729 c-43 -8 -111 -51 -111 -70 0 -5 10 -19 21 -30 19 -19 29
-21 82 -16 39 3 71 13 91 28 l31 22 -29 -31 c-17 -18 -25 -32 -20 -32 22 0 53
45 47 68 -4 18 -2 21 11 16 9 -3 16 -2 16 4 0 8 -50 35 -90 48 -3 1 -25 -2
-49 -7z m50 -19 c10 -6 19 -15 19 -21 0 -5 -10 -3 -23 6 -23 14 -37 12 -37 -7
0 -5 5 -6 12 -2 7 5 8 3 3 -5 -6 -10 -11 -9 -24 3 -14 15 -14 18 -1 26 19 12
27 12 51 0z m43 -38 c-6 -9 -16 -18 -23 -18 -6 -1 -15 -2 -20 -3 -5 0 -16 -7
-24 -15 -11 -11 -24 -12 -53 -6 -21 5 -41 7 -45 4 -4 -2 -10 4 -14 13 -4 12 1
24 15 35 26 21 50 23 50 5 0 -7 6 -21 13 -31 11 -15 18 -17 33 -8 10 6 15 12
11 12 -5 0 -5 5 -2 10 4 7 13 7 26 0 20 -11 24 -4 19 30 -1 12 1 13 11 2 10
-9 11 -17 3 -30z"/>
<path d="M1969 1708 c-1 -18 -1 -50 1 -71 1 -25 -4 -45 -16 -58 -15 -17 -15
-19 -1 -19 9 0 20 15 27 35 16 49 19 85 8 85 -6 0 -7 11 -4 24 3 14 2 28 -4
31 -6 4 -11 -8 -11 -27z"/>
<path d="M1846 1715 c-3 -8 -1 -15 4 -15 6 0 10 7 10 15 0 8 -2 15 -4 15 -2 0
-6 -7 -10 -15z"/>
<path d="M1123 1710 c-22 -5 -72 -21 -109 -37 -56 -23 -69 -33 -75 -57 -11
-40 -2 -47 11 -10 8 22 24 35 63 51 70 30 103 37 111 24 10 -16 26 -14 20 2
-6 16 28 19 38 3 4 -6 10 -7 14 -3 7 7 -14 38 -25 36 -3 -1 -25 -5 -48 -9z"/>
<path d="M1919 1689 c-8 -15 -8 -19 0 -15 14 9 14 -7 1 -20 -8 -8 -7 -19 1
-37 14 -31 33 -37 24 -8 -3 11 -1 22 4 26 7 4 7 14 1 31 -6 14 -8 30 -4 35 3
5 1 9 -5 9 -6 0 -15 -10 -22 -21z"/>
<path d="M1210 1684 c0 -3 5 -14 11 -25 8 -16 7 -25 -6 -39 -16 -17 -17 -17
-42 6 -14 13 -42 28 -61 34 -30 8 -42 6 -84 -17 -54 -29 -91 -73 -62 -73 23 0
54 -29 48 -45 -4 -10 4 -11 43 -3 55 12 76 27 94 69 8 21 14 26 20 18 8 -14 1
-99 -11 -114 -8 -12 -22 -60 -26 -91 -3 -29 42 -70 86 -78 30 -6 33 -5 16 6
-10 7 -31 23 -46 35 -15 12 -29 21 -32 18 -12 -12 -4 44 12 86 11 27 19 53 18
57 -4 16 16 59 40 84 23 25 24 30 12 53 -12 22 -30 34 -30 19z m-142 -49 c-16
-13 -28 -27 -28 -31 0 -16 34 -44 54 -44 17 0 18 -2 6 -10 -25 -16 -64 -10
-94 14 -28 23 -28 24 -8 35 11 6 26 17 34 24 14 14 50 36 58 36 3 0 -7 -11
-22 -24z m55 -1 c11 -11 -3 -24 -18 -18 -8 4 -12 10 -9 15 6 11 18 12 27 3z
m-10 -44 c15 0 18 -3 10 -11 -14 -14 -57 7 -46 24 5 8 8 8 11 -1 2 -7 13 -12
25 -12z"/>
<path d="M1342 1659 c-28 -29 -11 -89 25 -89 11 0 10 6 -6 28 -18 26 -18 31
-6 55 17 32 12 34 -13 6z"/>
<path d="M1286 1621 c-15 -28 -22 -51 -16 -51 6 0 15 12 21 28 6 15 15 35 21
45 5 11 7 21 4 24 -2 3 -16 -18 -30 -46z"/>
<path d="M1185 1650 c3 -5 8 -10 11 -10 2 0 4 5 4 10 0 6 -5 10 -11 10 -5 0
-7 -4 -4 -10z"/>
<path d="M1384 1629 c-8 -14 11 -33 25 -25 6 4 11 11 11 16 0 13 -29 20 -36 9z"/>
<path d="M1883 1565 c0 -44 2 -61 4 -37 2 23 2 59 0 80 -2 20 -4 1 -4 -43z"/>
<path d="M1400 1571 c0 -4 27 -23 60 -40 33 -18 60 -28 60 -23 0 5 -18 17 -40
27 -22 10 -45 24 -51 32 -13 15 -29 17 -29 4z"/>
<path d="M1601 1549 c-13 -11 -21 -22 -18 -25 8 -8 25 4 37 27 13 24 11 23
-19 -2z"/>
<path d="M1250 1539 c0 -5 5 -7 10 -4 6 3 10 8 10 11 0 2 -4 4 -10 4 -5 0 -10
-5 -10 -11z"/>
<path d="M1120 1475 c-22 -35 -28 -36 -63 -7 -9 8 -20 13 -23 9 -3 -3 7 -14
23 -23 15 -10 31 -23 34 -28 4 -5 19 10 34 33 16 23 26 44 23 47 -3 3 -16 -11
-28 -31z"/>
<path d="M2794 1410 c0 -52 1 -74 3 -47 2 26 2 68 0 95 -2 26 -3 4 -3 -48z"/>
<path d="M1270 1455 c13 -14 26 -23 28 -20 7 7 -29 45 -41 45 -6 0 0 -11 13
-25z"/>
<path d="M1350 1441 c0 -5 5 -13 10 -16 6 -3 10 -2 10 4 0 5 -4 13 -10 16 -5
3 -10 2 -10 -4z"/>
<path d="M1365 1390 c3 -5 8 -10 11 -10 2 0 4 5 4 10 0 6 -5 10 -11 10 -5 0
-7 -4 -4 -10z"/>
<path d="M1382 1380 c-14 -23 -42 -27 -42 -5 0 16 -9 19 -34 9 -25 -9 -19 -24
9 -24 26 0 33 -14 14 -26 -6 -3 -16 -1 -22 5 -14 14 -47 15 -47 1 0 -10 14
-14 40 -10 12 2 11 -3 -4 -19 -22 -25 -30 -27 -23 -7 4 10 1 13 -8 9 -12 -4
-12 -9 -3 -26 7 -14 13 -17 16 -9 6 18 29 15 41 -5 9 -16 12 -16 36 7 22 21
25 22 19 5 -7 -18 -6 -18 9 -6 9 7 14 17 11 22 -9 15 -32 10 -47 -11 -8 -11
-17 -17 -20 -13 -4 4 3 18 15 32 l23 26 -27 -24 c-16 -14 -28 -19 -28 -13 0 6
11 19 25 29 58 40 68 50 64 61 -3 8 -9 4 -17 -8z"/>
<path d="M1415 1350 c8 -13 65 -43 71 -37 5 4 -61 47 -72 47 -3 0 -2 -5 1 -10z"/>
<path d="M1133 1293 c-15 -50 -7 -56 12 -10 17 41 18 47 7 47 -4 0 -12 -17
-19 -37z"/>
<path d="M1490 1290 c-12 -8 -9 -10 13 -10 15 0 27 -4 27 -10 0 -5 6 -10 13
-10 7 0 21 -13 30 -30 17 -29 17 -29 0 -23 -14 5 -13 1 6 -20 24 -26 40 -30
25 -6 -4 7 -8 24 -9 39 -1 14 -5 37 -9 50 l-7 25 21 -25 c11 -14 28 -37 37
-52 10 -16 21 -28 26 -28 12 0 -17 46 -52 83 -22 24 -27 26 -37 12 -11 -15
-44 -11 -44 6 0 12 -21 11 -40 -1z"/>
<path d="M1190 1280 c-12 -7 -12 -12 -2 -22 17 -17 15 -33 -3 -18 -23 19 -28
6 -6 -14 18 -16 19 -16 30 15 12 36 4 53 -19 39z"/>
<path d="M1470 1255 c0 -12 -5 -15 -21 -10 -15 5 -19 4 -15 -4 4 -6 -1 -14
-11 -17 -10 -3 -34 -14 -54 -25 -20 -10 -40 -19 -45 -19 -15 0 15 23 53 41 34
15 35 17 13 18 -14 1 -38 -6 -53 -14 -15 -8 -35 -11 -43 -8 -9 3 -28 -4 -44
-16 -16 -11 -36 -18 -44 -15 -11 4 -16 0 -16 -10 0 -9 0 -19 -1 -23 0 -4 5 -9
12 -12 6 -2 9 1 5 7 -16 26 16 20 44 -8 23 -23 38 -30 69 -30 33 0 46 7 82 43
24 23 32 30 19 15 -13 -16 -21 -30 -18 -33 3 -3 21 13 39 37 19 24 26 37 17
30 -13 -10 -17 -10 -22 3 -3 10 1 15 13 15 10 0 24 6 30 14 7 8 21 12 31 9 21
-6 28 -23 8 -23 -6 0 -3 -9 7 -20 10 -11 23 -20 28 -20 6 0 2 9 -8 20 -13 15
-15 20 -4 20 19 0 -20 36 -48 45 -17 5 -23 2 -23 -10z m-180 -66 c-43 -12 -56
-10 -35 5 10 7 28 11 39 8 20 -6 20 -6 -4 -13z m93 -29 l-41 -39 -46 15 c-52
18 -68 34 -34 35 74 1 107 7 128 22 41 29 37 7 -7 -33z"/>
<path d="M1225 1249 c-9 -14 0 -22 18 -17 13 2 13 5 2 15 -10 9 -16 9 -20 2z"/>
<path d="M1137 1224 c-4 -4 -2 -13 4 -20 6 -7 7 -19 3 -26 -5 -7 -10 -24 -11
-38 -1 -14 1 -18 4 -10 3 8 11 18 16 22 14 8 14 71 1 75 -6 2 -13 0 -17 -3z"/>
<path d="M1895 1200 c3 -5 8 -10 11 -10 2 0 4 5 4 10 0 6 -5 10 -11 10 -5 0
-7 -4 -4 -10z"/>
<path d="M1710 1194 c0 -3 11 -20 25 -38 14 -18 22 -37 18 -42 -4 -5 -1 -4 6
3 12 10 10 18 -13 48 -26 33 -36 42 -36 29z"/>
<path d="M1580 1145 c13 -14 26 -23 28 -20 7 7 -29 45 -41 45 -6 0 0 -11 13
-25z"/>
<path d="M1446 1144 c-10 -25 1 -29 14 -5 6 12 7 21 1 21 -5 0 -12 -7 -15 -16z"/>
<path d="M1882 1140 c7 -11 16 -20 20 -20 5 0 3 9 -4 20 -7 11 -16 20 -20 20
-5 0 -3 -9 4 -20z"/>
<path d="M1080 1130 c0 -11 5 -20 10 -20 6 0 10 9 10 20 0 11 -4 20 -10 20 -5
0 -10 -9 -10 -20z"/>
<path d="M1553 1132 c1 -12 13 -34 27 -47 25 -24 27 -25 25 -5 -1 12 -13 33
-28 47 -25 26 -26 26 -24 5z m38 -29 c13 -15 12 -15 -8 -4 -24 12 -29 21 -14
21 5 0 15 -7 22 -17z"/>
<path d="M1650 1136 c0 -5 11 -24 26 -43 24 -32 25 -53 2 -53 -5 0 -8 6 -5 14
3 8 -1 20 -9 26 -11 10 -14 10 -14 0 0 -10 -3 -10 -15 0 -10 9 -15 9 -15 1 0
-9 11 -14 30 -13 3 0 6 -11 6 -24 2 -29 -4 -30 -23 -6 -14 16 -14 16 -9 -2 4
-12 -2 -25 -19 -38 -15 -11 -24 -22 -22 -25 3 -2 -5 -15 -17 -28 -48 -53 -48
-53 -13 -63 17 -6 47 -13 66 -16 29 -5 32 -4 21 9 -7 9 -19 14 -26 11 -7 -3
-23 3 -34 12 -21 17 -21 18 -3 41 l19 23 34 -20 c18 -12 38 -18 43 -15 5 3 -9
14 -32 25 -22 10 -41 20 -41 21 0 2 27 20 60 42 64 42 64 42 16 100 -14 17
-25 26 -26 21z m-90 -236 c0 -5 -5 -10 -11 -10 -5 0 -7 5 -4 10 3 6 8 10 11
10 2 0 4 -4 4 -10z"/>
<path d="M1157 1108 c-8 -29 14 -43 31 -21 18 25 14 41 -5 18 -15 -20 -15 -20
-10 3 7 29 -9 29 -16 0z"/>
<path d="M1530 1107 c0 -4 7 -15 16 -24 8 -10 23 -29 33 -42 10 -14 21 -20 24
-14 3 5 -12 27 -33 48 -22 22 -40 36 -40 32z"/>
<path d="M1066 1063 c-4 -11 2 -26 18 -41 23 -24 47 -23 45 1 0 9 -2 9 -6 0
-9 -24 -25 -13 -19 12 4 14 2 25 -4 25 -5 0 -10 -7 -10 -16 0 -8 -5 -12 -10
-9 -6 4 -8 15 -5 26 8 23 0 25 -9 2z"/>
<path d="M1189 1058 c-6 -12 -16 -26 -21 -29 -12 -8 12 -59 28 -59 6 0 15 8
20 18 11 25 13 82 2 76 -6 -4 -8 -16 -6 -29 3 -12 -1 -30 -8 -39 -11 -16 -13
-16 -19 3 -3 12 1 31 11 46 9 14 14 28 11 31 -3 3 -11 -5 -18 -18z"/>
<path d="M1280 1070 c0 -5 5 -10 10 -10 6 0 10 5 10 10 0 6 -4 10 -10 10 -5 0
-10 -4 -10 -10z"/>
<path d="M1319 1064 c-13 -16 -12 -16 9 -5 13 7 26 10 29 7 3 -3 -7 -11 -21
-18 -15 -6 -34 -24 -42 -39 -16 -31 -19 -85 -5 -93 4 -3 7 12 6 34 -2 35 3 45
32 70 22 20 45 30 66 30 37 1 22 14 -29 24 -23 5 -35 2 -45 -10z"/>
<path d="M1526 1053 c-4 -10 1 -25 14 -37 12 -13 20 -16 20 -8 0 8 5 10 12 6
7 -4 2 7 -11 24 -26 37 -27 37 -35 15z m24 -18 c11 -13 10 -14 -4 -9 -9 3 -16
10 -16 15 0 13 6 11 20 -6z"/>
<path d="M1820 1054 c0 -7 9 -22 20 -35 25 -31 26 -12 0 21 -11 14 -20 20 -20
14z"/>
<path d="M1483 1033 c-10 -3 -10 -9 0 -24 6 -10 16 -19 21 -19 4 0 3 7 -4 15
-7 9 -10 18 -7 21 3 3 12 -3 19 -15 7 -12 16 -21 21 -21 4 0 0 11 -10 25 -19
26 -21 26 -40 18z"/>
<path d="M1390 1001 c0 -5 6 -14 14 -20 12 -10 13 -8 9 8 -5 21 -23 30 -23 12z"/>
<path d="M1430 998 c0 -9 5 -20 10 -23 13 -8 13 5 0 25 -8 13 -10 13 -10 -2z"/>
<path d="M1310 983 c0 -5 7 -18 15 -29 13 -18 14 -18 8 4 -5 22 -23 41 -23 25z"/>
<path d="M1340 980 c0 -16 26 -65 35 -67 6 -1 19 -5 30 -8 15 -6 14 -3 -5 11
-14 10 -28 23 -32 28 -12 17 -9 28 3 20 7 -4 10 -1 7 6 -4 14 -38 23 -38 10z"/>
<path d="M1476 964 c-9 -8 -16 -12 -16 -7 0 4 -4 2 -9 -5 -4 -7 -17 -14 -29
-15 -11 0 -18 -5 -15 -10 8 -14 60 0 82 22 11 11 16 23 11 26 -4 3 -16 -2 -24
-11z"/>
<path d="M1090 950 c8 -5 20 -10 25 -10 6 0 3 5 -5 10 -8 5 -19 10 -25 10 -5
0 -3 -5 5 -10z"/>
<path d="M1585 920 c3 -6 15 -10 25 -10 10 0 26 -7 35 -16 9 -9 19 -13 22 -10
4 4 0 13 -8 20 -17 16 -83 30 -74 16z"/>
<path d="M1380 851 c8 -5 26 -12 40 -15 l25 -7 -25 15 c-14 9 -32 15 -40 15
-13 0 -13 -1 0 -8z"/>
<path d="M1270 846 c0 -2 7 -7 16 -10 8 -3 12 -2 9 4 -6 10 -25 14 -25 6z"/>
<path d="M1793 803 c-35 -3 -53 -9 -57 -20 -5 -13 -1 -14 26 -9 18 4 64 10
103 13 47 4 63 9 50 14 -20 8 -32 8 -122 2z"/>
<path d="M1805 754 l-70 -13 75 4 c77 4 161 25 95 23 -16 0 -61 -7 -100 -14z"/>
<path d="M1903 733 c-13 -2 -23 -9 -23 -15 0 -5 7 -7 16 -4 9 3 29 6 45 6 16
0 29 5 29 10 0 10 -25 11 -67 3z"/>
<path d="M1430 710 c-9 -16 -8 -18 5 -14 8 4 15 12 15 20 0 20 -7 17 -20 -6z"/>
<path d="M1754 708 c-18 -20 -18 -21 -1 -15 10 4 27 7 38 7 12 0 16 5 13 15
-9 21 -28 19 -50 -7z"/>
<path d="M1313 682 c2 -12 9 -28 16 -35 11 -10 12 -7 6 13 -10 34 -27 51 -22
22z"/>
<path d="M1100 681 c0 -5 5 -13 10 -16 6 -3 10 -2 10 4 0 5 -4 13 -10 16 -5 3
-10 2 -10 -4z"/>
<path d="M1015 379 c-11 -17 1 -21 15 -4 8 9 8 15 2 15 -6 0 -14 -5 -17 -11z"/>
<path d="M1150 356 c0 -2 7 -6 15 -10 8 -3 15 -1 15 4 0 6 -7 10 -15 10 -8 0
-15 -2 -15 -4z"/>
<path d="M650 330 c40 -31 173 -101 184 -97 6 2 -10 13 -35 24 -26 12 -72 37
-103 57 -60 39 -87 48 -46 16z"/>
</g>
</svg>
